<svg width="224" height="86" viewBox="0 0 224 86" fill="none" xmlns="http://www.w3.org/2000/svg">
<path d="M1.01306 54.808C0.501063 54.808 0.245063 54.552 0.245063 54.04V50.296C0.245063 49.784 0.501063 49.528 1.01306 49.528H3.70106C3.95706 49.528 4.13306 49.608 4.22906 49.768C4.35706 49.896 4.42106 50.072 4.42106 50.296V54.04C4.42106 54.552 4.18106 54.808 3.70106 54.808H1.01306ZM0.437063 85V59.368H4.22906V85H0.437063ZM11.5464 85V59.368H14.5224L15.3384 62.2C16.5544 61.336 17.9784 60.584 19.6104 59.944C21.2424 59.272 22.9384 58.936 24.6984 58.936C26.5864 58.936 28.1064 59.336 29.2584 60.136C30.4104 60.936 31.2584 61.992 31.8024 63.304C32.3464 64.616 32.6184 66.04 32.6184 67.576V85H28.8264V68.008C28.8264 66.92 28.6024 65.96 28.1544 65.128C27.7384 64.264 27.1304 63.592 26.3304 63.112C25.5624 62.632 24.6024 62.392 23.4504 62.392C22.3944 62.392 21.4024 62.504 20.4744 62.728C19.5784 62.92 18.7144 63.208 17.8824 63.592C17.0824 63.944 16.2344 64.376 15.3384 64.888V85H11.5464ZM46.4852 85.048C45.0132 85.048 43.7812 84.792 42.7892 84.28C41.7972 83.736 41.0452 82.872 40.5332 81.688C40.0212 80.472 39.7652 78.84 39.7652 76.792V48.376H43.5572V76.312C43.5572 77.848 43.7012 79.016 43.9892 79.816C44.2772 80.584 44.6932 81.128 45.2372 81.448C45.7812 81.736 46.4212 81.928 47.1572 82.024L49.7492 82.312V85.048H46.4852ZM64.0506 85.288C62.1946 85.288 60.5626 85.096 59.1546 84.712C57.7786 84.328 56.6266 83.656 55.6986 82.696C54.7706 81.736 54.0826 80.408 53.6346 78.712C53.1866 76.984 52.9626 74.792 52.9626 72.136C52.9626 69.448 53.1866 67.256 53.6346 65.56C54.0826 63.832 54.7706 62.504 55.6986 61.576C56.6266 60.616 57.7786 59.96 59.1546 59.608C60.5626 59.224 62.1946 59.032 64.0506 59.032C65.9066 59.032 67.5226 59.224 68.8986 59.608C70.3066 59.992 71.4746 60.664 72.4026 61.624C73.3306 62.552 74.0186 63.88 74.4666 65.608C74.9466 67.304 75.1866 69.48 75.1866 72.136C75.1866 74.824 74.9466 77.032 74.4666 78.76C74.0186 80.456 73.3306 81.784 72.4026 82.744C71.5066 83.672 70.3546 84.328 68.9466 84.712C67.5386 85.096 65.9066 85.288 64.0506 85.288ZM64.0506 82.168C65.2346 82.168 66.2746 82.056 67.1706 81.832C68.0986 81.608 68.8666 81.16 69.4746 80.488C70.0826 79.816 70.5466 78.808 70.8666 77.464C71.1866 76.12 71.3466 74.344 71.3466 72.136C71.3466 69.896 71.1866 68.12 70.8666 66.808C70.5466 65.496 70.0826 64.504 69.4746 63.832C68.8666 63.16 68.0986 62.712 67.1706 62.488C66.2746 62.264 65.2346 62.152 64.0506 62.152C62.8346 62.152 61.7786 62.264 60.8826 62.488C59.9866 62.712 59.2346 63.16 58.6266 63.832C58.0186 64.504 57.5546 65.496 57.2346 66.808C56.9146 68.12 56.7546 69.896 56.7546 72.136C56.7546 74.344 56.9146 76.12 57.2346 77.464C57.5546 78.808 58.0186 79.816 58.6266 80.488C59.2346 81.16 59.9866 81.608 60.8826 81.832C61.7786 82.056 62.8346 82.168 64.0506 82.168ZM90.8897 85.288C89.4497 85.288 88.1057 85.096 86.8577 84.712C85.6097 84.328 84.5217 83.656 83.5937 82.696C82.6657 81.736 81.9457 80.408 81.4337 78.712C80.9217 77.016 80.6657 74.856 80.6657 72.232C80.6657 69.576 80.9057 67.4 81.3857 65.704C81.8657 63.976 82.5537 62.632 83.4497 61.672C84.3457 60.712 85.4337 60.04 86.7137 59.656C87.9937 59.272 89.4177 59.08 90.9857 59.08C92.2657 59.08 93.6577 59.144 95.1617 59.272C96.6657 59.368 98.1057 59.528 99.4817 59.752V62.008H91.9937C90.3617 62.008 88.9857 62.28 87.8657 62.824C86.7457 63.368 85.8977 64.392 85.3217 65.896C84.7457 67.368 84.4577 69.512 84.4577 72.328C84.4577 75.048 84.7617 77.128 85.3697 78.568C85.9777 80.008 86.8417 81 87.9617 81.544C89.0817 82.056 90.4417 82.312 92.0417 82.312H99.8657V84.52C99.1297 84.648 98.2657 84.776 97.2737 84.904C96.3137 85.032 95.2897 85.128 94.2017 85.192C93.1137 85.256 92.0097 85.288 90.8897 85.288ZM110.101 85.288C108.213 85.288 106.661 84.728 105.445 83.608C104.229 82.488 103.621 80.904 103.621 78.856V77.032C103.621 75.016 104.277 73.384 105.589 72.136C106.933 70.888 108.949 70.264 111.637 70.264H120.325V67.096C120.325 66.04 120.133 65.144 119.749 64.408C119.397 63.64 118.741 63.048 117.781 62.632C116.853 62.216 115.493 62.008 113.701 62.008H105.733V59.752C106.853 59.56 108.149 59.384 109.621 59.224C111.125 59.064 112.885 58.984 114.901 58.984C116.981 58.952 118.709 59.208 120.085 59.752C121.461 60.296 122.469 61.16 123.109 62.344C123.781 63.496 124.117 65.016 124.117 66.904V85H121.189L120.469 82.072C120.341 82.2 119.941 82.424 119.269 82.744C118.629 83.064 117.797 83.432 116.773 83.848C115.781 84.232 114.693 84.568 113.509 84.856C112.357 85.144 111.221 85.288 110.101 85.288ZM111.685 82.456C112.261 82.488 112.917 82.424 113.653 82.264C114.389 82.104 115.141 81.928 115.909 81.736C116.677 81.512 117.381 81.288 118.021 81.064C118.693 80.84 119.237 80.648 119.653 80.488C120.069 80.328 120.293 80.248 120.325 80.248V72.184L112.501 72.52C110.677 72.584 109.365 73.032 108.565 73.864C107.797 74.696 107.413 75.768 107.413 77.08V78.232C107.413 79.256 107.621 80.088 108.037 80.728C108.485 81.336 109.029 81.768 109.669 82.024C110.341 82.28 111.013 82.424 111.685 82.456ZM139.761 85C138.097 85 136.721 84.728 135.633 84.184C134.545 83.64 133.745 82.76 133.233 81.544C132.721 80.328 132.481 78.712 132.513 76.696L132.657 62.488H128.577V60.04L132.705 59.368L133.329 52.216H136.257V59.368H143.649V62.488H136.257V76.696C136.257 77.816 136.369 78.712 136.593 79.384C136.849 80.056 137.169 80.568 137.553 80.92C137.969 81.272 138.401 81.528 138.849 81.688C139.297 81.816 139.729 81.896 140.145 81.928L143.265 82.216V85H139.761ZM158.682 85.288C155.994 85.288 153.866 84.888 152.298 84.088C150.762 83.288 149.658 81.928 148.986 80.008C148.314 78.088 147.978 75.464 147.978 72.136C147.978 68.744 148.314 66.104 148.986 64.216C149.69 62.296 150.826 60.952 152.394 60.184C153.962 59.416 156.074 59.032 158.73 59.032C161.002 59.032 162.842 59.288 164.25 59.8C165.69 60.312 166.746 61.192 167.418 62.44C168.122 63.656 168.474 65.352 168.474 67.528C168.474 69.032 168.17 70.248 167.562 71.176C166.986 72.072 166.138 72.728 165.018 73.144C163.93 73.528 162.634 73.72 161.13 73.72H151.77C151.802 75.8 152.026 77.48 152.442 78.76C152.858 80.008 153.61 80.92 154.698 81.496C155.818 82.04 157.45 82.312 159.594 82.312H167.85V84.616C166.378 84.808 164.938 84.968 163.53 85.096C162.122 85.224 160.506 85.288 158.682 85.288ZM151.722 71.224H160.842C162.282 71.224 163.338 70.968 164.01 70.456C164.714 69.912 165.066 68.952 165.066 67.576C165.066 66.104 164.842 64.968 164.394 64.168C163.978 63.336 163.306 62.76 162.378 62.44C161.482 62.088 160.266 61.912 158.73 61.912C156.938 61.912 155.53 62.184 154.506 62.728C153.482 63.24 152.762 64.168 152.346 65.512C151.93 66.856 151.722 68.76 151.722 71.224Z" fill="black"/>
<circle cx="179" cy="44" r="8" fill="#FFBD4A"/>
<path d="M171.5 18C176.031 18 180.517 18.8924 184.703 20.6262C188.888 22.3599 192.692 24.9012 195.895 28.1048C199.099 31.3084 201.64 35.1117 203.374 39.2974C205.108 43.4832 206 47.9694 206 52.5L198.742 52.5C198.742 48.9225 198.038 45.3801 196.668 42.0749C195.299 38.7697 193.293 35.7666 190.763 33.2369C188.233 30.7072 185.23 28.7006 181.925 27.3315C178.62 25.9625 175.077 25.2579 171.5 25.2579L171.5 18Z" fill="#35B729"/>
<path d="M171.5 0C178.394 0 185.221 1.35795 191.591 3.99632C197.96 6.6347 203.748 10.5018 208.623 15.3769C213.498 20.252 217.365 26.0395 220.004 32.4091C222.642 38.7787 224 45.6056 224 52.5L215.872 52.5C215.872 46.673 214.724 40.903 212.494 35.5196C210.264 30.1361 206.996 25.2446 202.876 21.1242C198.755 17.0039 193.864 13.7355 188.48 11.5056C183.097 9.2757 177.327 8.12799 171.5 8.12799V0Z" fill="#FFBD4A"/>
</svg>
