<svg id="svg" version="1.1" xmlns="http://www.w3.org/2000/svg" xmlns:xlink="http://www.w3.org/1999/xlink" width="400" height="400" viewBox="0, 0, 400,400"><g id="svgg"><path id="path0" d="M191.462 47.813 C 155.439 54.622,142.242 99.491,168.874 124.614 C 197.754 151.858,244.844 129.782,243.083 89.825 C 241.911 63.213,217.045 42.977,191.462 47.813 M59.381 120.500 L 57.800 122.200 59.500 120.619 C 61.081 119.148,61.384 118.800,61.081 118.800 C 61.016 118.800,60.251 119.565,59.381 120.500 M46.493 151.600 C 46.493 152.370,46.575 152.685,46.676 152.300 C 46.776 151.915,46.776 151.285,46.676 150.900 C 46.575 150.515,46.493 150.830,46.493 151.600 M227.391 293.800 C 227.391 311.400,227.440 318.542,227.500 309.670 C 227.560 300.799,227.560 286.399,227.500 277.670 C 227.440 268.942,227.391 276.200,227.391 293.800 M191.790 296.200 C 191.790 312.480,191.839 319.082,191.900 310.870 C 191.960 302.659,191.960 289.339,191.900 281.270 C 191.839 273.202,191.790 279.920,191.790 296.200 M331.789 298.000 C 331.789 313.510,331.839 319.855,331.900 312.100 C 331.961 304.345,331.961 291.655,331.900 283.900 C 331.839 276.145,331.789 282.490,331.789 298.000 M79.200 277.400 C 79.946 278.170,80.647 278.800,80.757 278.800 C 80.867 278.800,80.346 278.170,79.600 277.400 C 78.854 276.630,78.153 276.000,78.043 276.000 C 77.933 276.000,78.454 276.630,79.200 277.400 " stroke="none" fill="#f7a449" fill-rule="evenodd"></path><path id="path1" d="M80.800 82.011 C 47.615 86.607,22.681 112.757,20.016 145.758 C 19.478 152.433,19.453 240.472,19.989 243.746 C 22.144 256.907,39.093 259.305,44.746 247.248 L 45.800 245.000 45.919 226.001 C 45.984 215.552,46.191 206.849,46.380 206.660 C 46.570 206.470,47.763 207.021,49.061 207.898 C 96.586 240.007,158.275 207.731,158.189 150.800 C 158.126 109.445,120.998 76.443,80.800 82.011 M257.259 106.807 C 253.391 107.619,249.065 111.480,247.728 115.312 C 247.037 117.295,247.000 120.384,247.000 176.800 L 247.000 236.200 247.990 238.200 C 252.962 248.238,267.012 248.389,271.891 238.457 L 273.000 236.200 273.200 196.133 C 273.310 174.096,273.509 155.957,273.643 155.824 C 273.776 155.690,290.966 174.790,311.843 198.267 C 332.719 221.745,350.430 241.570,351.200 242.323 C 357.498 248.482,368.064 246.333,371.918 238.108 L 373.000 235.800 373.104 176.816 C 373.220 110.953,373.409 115.454,370.366 111.605 C 364.128 103.713,352.432 105.240,348.152 114.506 L 347.000 117.000 346.800 157.000 L 346.600 197.000 345.800 196.188 C 345.360 195.742,327.642 175.894,306.426 152.081 C 264.010 104.475,266.525 107.014,261.400 106.624 C 260.080 106.523,258.216 106.606,257.259 106.807 M94.626 108.429 C 124.017 112.517,140.880 143.507,128.029 169.817 C 113.272 200.029,71.630 202.620,53.280 174.469 C 33.596 144.270,59.127 103.491,94.626 108.429 M189.694 193.507 L 189.800 241.400 190.665 243.000 C 194.670 250.409,204.467 250.181,207.880 242.600 C 208.558 241.092,208.606 238.248,208.708 193.324 L 208.816 145.648 207.308 145.924 C 205.306 146.290,193.908 146.278,191.494 145.907 L 189.587 145.614 189.694 193.507 M287.862 255.783 C 286.084 256.417,284.605 257.691,283.662 259.400 C 283.075 260.463,282.977 263.149,282.800 283.000 L 282.600 305.400 281.593 304.400 C 281.039 303.850,271.194 292.858,259.714 279.974 C 248.235 267.090,238.375 256.335,237.803 256.074 C 233.969 254.327,229.234 256.718,228.048 261.000 C 227.276 263.787,227.435 325.631,228.219 327.507 C 230.326 332.549,236.275 333.850,239.730 330.024 C 241.971 327.544,241.995 327.278,242.004 304.400 C 242.008 292.850,242.158 283.171,242.335 282.891 C 242.557 282.541,249.306 289.871,263.878 306.291 C 287.976 333.444,286.016 331.393,288.501 332.058 C 291.528 332.868,294.585 331.362,296.336 328.200 C 297.161 326.710,297.587 263.722,296.792 260.770 C 295.686 256.662,291.677 254.423,287.862 255.783 M310.946 255.576 C 304.987 257.022,303.662 264.974,308.775 268.600 L 310.467 269.800 321.234 269.929 L 332.000 270.058 332.002 297.929 C 332.005 328.409,331.971 327.958,334.385 330.139 C 338.125 333.517,343.068 332.658,345.536 328.200 C 346.134 327.119,346.211 324.176,346.315 298.524 L 346.430 270.048 357.115 269.924 C 369.198 269.784,369.521 269.712,371.502 266.716 C 373.741 263.330,372.696 258.445,369.280 256.320 L 367.800 255.400 340.000 255.336 C 324.710 255.300,311.636 255.408,310.946 255.576 M139.200 256.182 C 101.915 262.317,94.823 312.461,128.953 328.628 C 153.255 340.140,181.294 323.005,182.671 295.800 C 183.883 271.841,162.495 252.349,139.200 256.182 M55.245 256.618 C 40.610 259.793,29.791 270.103,25.463 285.000 C 24.513 288.271,23.889 343.444,24.768 346.428 C 26.075 350.862,31.865 352.831,35.544 350.093 C 38.177 348.133,38.381 347.072,38.391 335.324 C 38.396 329.562,38.535 324.767,38.700 324.669 C 38.865 324.571,40.571 325.442,42.492 326.605 C 68.970 342.633,101.436 323.530,100.284 292.600 C 99.415 269.258,77.539 251.781,55.245 256.618 M197.000 260.881 C 195.329 261.464,193.633 263.110,192.758 265.000 C 191.617 267.466,191.611 324.904,192.752 327.417 C 195.695 333.896,204.543 332.924,205.971 325.964 C 206.780 322.025,206.383 266.130,205.536 264.600 C 203.653 261.199,200.291 259.734,197.000 260.881 M67.117 270.629 C 89.705 275.239,93.615 305.061,72.979 315.336 C 61.047 321.277,46.097 315.757,40.828 303.464 C 33.383 286.097,48.766 266.884,67.117 270.629 M151.000 271.067 C 168.552 275.461,174.662 297.781,161.831 310.636 C 152.250 320.236,138.000 320.306,128.353 310.802 C 111.066 293.772,127.377 265.155,151.000 271.067 " stroke="none" fill="#040404" fill-rule="evenodd"></path><path id="path2" d="" stroke="none" fill="#7c7c7c" fill-rule="evenodd"></path><path id="path3" d="M19.693 147.600 C 19.693 148.370,19.775 148.685,19.876 148.300 C 19.976 147.915,19.976 147.285,19.876 146.900 C 19.775 146.515,19.693 146.830,19.693 147.600 M88.500 194.287 C 89.105 194.378,90.095 194.378,90.700 194.287 C 91.305 194.195,90.810 194.120,89.600 194.120 C 88.390 194.120,87.895 194.195,88.500 194.287 M117.775 266.900 L 116.600 268.200 117.900 267.025 C 119.112 265.930,119.384 265.600,119.075 265.600 C 119.006 265.600,118.421 266.185,117.775 266.900 M144.100 270.276 C 144.485 270.376,145.115 270.376,145.500 270.276 C 145.885 270.175,145.570 270.093,144.800 270.093 C 144.030 270.093,143.715 270.175,144.100 270.276 M62.100 317.876 C 62.485 317.976,63.115 317.976,63.500 317.876 C 63.885 317.775,63.570 317.693,62.800 317.693 C 62.030 317.693,61.715 317.775,62.100 317.876 M117.600 321.000 C 118.346 321.770,119.047 322.400,119.157 322.400 C 119.267 322.400,118.746 321.770,118.000 321.000 C 117.254 320.230,116.553 319.600,116.443 319.600 C 116.333 319.600,116.854 320.230,117.600 321.000 " stroke="none" fill="#585858" fill-rule="evenodd"></path><path id="path4" d="M87.312 81.495 C 88.364 81.577,89.984 81.576,90.912 81.492 C 91.840 81.408,90.980 81.341,89.000 81.342 C 87.020 81.343,86.260 81.412,87.312 81.495 M41.375 100.500 L 40.200 101.800 41.500 100.625 C 42.712 99.530,42.984 99.200,42.675 99.200 C 42.606 99.200,42.021 99.785,41.375 100.500 M88.105 108.287 C 88.714 108.379,89.614 108.377,90.105 108.282 C 90.597 108.187,90.100 108.111,89.000 108.114 C 87.900 108.117,87.497 108.195,88.105 108.287 M246.595 176.200 C 246.595 207.880,246.642 220.781,246.700 204.869 C 246.758 188.956,246.758 163.036,246.700 147.269 C 246.642 131.501,246.595 144.520,246.595 176.200 M118.400 119.725 C 118.400 119.794,118.985 120.379,119.700 121.025 L 121.000 122.200 119.825 120.900 C 118.730 119.688,118.400 119.416,118.400 119.725 M189.388 170.800 C 189.388 184.770,189.439 190.485,189.500 183.500 C 189.561 176.515,189.561 165.085,189.500 158.100 C 189.439 151.115,189.388 156.830,189.388 170.800 M132.131 150.600 C 132.133 152.140,132.205 152.721,132.292 151.891 C 132.379 151.061,132.377 149.801,132.289 149.091 C 132.200 148.381,132.129 149.060,132.131 150.600 M58.000 180.525 C 58.000 180.594,58.585 181.179,59.300 181.825 L 60.600 183.000 59.425 181.700 C 58.330 180.488,58.000 180.216,58.000 180.525 M189.386 217.600 C 189.386 229.370,189.437 234.185,189.500 228.300 C 189.562 222.415,189.562 212.785,189.500 206.900 C 189.437 201.015,189.386 205.830,189.386 217.600 M59.700 255.876 C 60.085 255.976,60.715 255.976,61.100 255.876 C 61.485 255.775,61.170 255.693,60.400 255.693 C 59.630 255.693,59.315 255.775,59.700 255.876 M63.905 255.883 C 64.402 255.979,65.122 255.975,65.505 255.875 C 65.887 255.775,65.480 255.696,64.600 255.701 C 63.720 255.705,63.407 255.787,63.905 255.883 M305.301 262.600 C 305.305 263.480,305.387 263.793,305.483 263.295 C 305.579 262.798,305.575 262.078,305.475 261.695 C 305.375 261.313,305.296 261.720,305.301 262.600 M106.528 294.400 C 106.528 295.830,106.601 296.415,106.689 295.700 C 106.778 294.985,106.778 293.815,106.689 293.100 C 106.601 292.385,106.528 292.970,106.528 294.400 M24.189 318.800 C 24.189 332.990,24.239 338.795,24.300 331.700 C 24.361 324.605,24.361 312.995,24.300 305.900 C 24.239 298.805,24.189 304.610,24.189 318.800 M121.293 295.600 C 121.293 296.370,121.375 296.685,121.476 296.300 C 121.576 295.915,121.576 295.285,121.476 294.900 C 121.375 294.515,121.293 294.830,121.293 295.600 M128.000 310.600 C 128.746 311.370,129.447 312.000,129.557 312.000 C 129.667 312.000,129.146 311.370,128.400 310.600 C 127.654 309.830,126.953 309.200,126.843 309.200 C 126.733 309.200,127.254 309.830,128.000 310.600 M61.300 332.691 C 62.125 332.778,63.475 332.778,64.300 332.691 C 65.125 332.605,64.450 332.534,62.800 332.534 C 61.150 332.534,60.475 332.605,61.300 332.691 " stroke="none" fill="#848484" fill-rule="evenodd"></path></g></svg>